<svg xmlns="http://www.w3.org/2000/svg" version="1.1" xmlns:xlink="http://www.w3.org/1999/xlink" xmlns:svgjs="http://svgjs.dev/svgjs" width="1000" height="1000" viewBox="0 0 1000 1000"><rect width="1000" height="1000" fill="#ffffff"></rect><g transform="matrix(0.7,0,0,0.7,149.57575757575756,282.1265587044535)"><svg viewBox="0 0 396 247" data-background-color="#ffffff" preserveAspectRatio="xMidYMid meet" height="623" width="1000" xmlns="http://www.w3.org/2000/svg" xmlns:xlink="http://www.w3.org/1999/xlink"><g id="tight-bounds" transform="matrix(1,0,0,1,0.2400000000000091,-0.09999999999999432)"><svg viewBox="0 0 395.52 247.2" height="247.2" width="395.52"><g><svg></svg></g><g><svg viewBox="0 0 395.52 247.2" height="247.2" width="395.52"><g transform="matrix(1,0,0,1,39.55199999999999,88.50751047125911)"><svg viewBox="0 0 316.416 70.18497905748178" height="70.18497905748178" width="316.416"><g><svg viewBox="0 0 316.416 70.18497905748178" height="70.18497905748178" width="316.416"><g><svg viewBox="0 0 316.416 70.18497905748178" height="70.18497905748178" width="316.416"><g><svg viewBox="0 0 316.416 70.18497905748178" height="70.18497905748178" width="316.416"><g><svg viewBox="0 0 316.416 35.0242876064333" height="35.0242876064333" width="316.416"><g transform="matrix(1,0,0,1,0,0)"><svg width="316.416" viewBox="4.08 -34.3 317.07 35.099999999999994" height="35.0242876064333" data-palette-color="#d71e24"><path d="M4.08 0L4.08-33.55 12.43-33.55 25.9-13.25 25.35-13.25 25.35-33.55 33.35-33.55 33.35 0 25.63 0 10.75-22.3 12.08-22.3 12.08 0 4.08 0ZM41.8 0L41.8-33.55 49.8-33.55 49.8-20.33 62.47-20.33 62.47-33.55 70.55-33.55 70.55 0 62.47 0 62.47-13.28 49.8-13.28 49.8 0 41.8 0ZM84.2 0L75.7 0 87-33.55 97.17-33.55 107.85 0 99.42 0 97.6-5.9 86.02-5.9 84.2 0ZM91.97-24.1L88.05-11.83 95.77-11.83 91.97-24.1ZM118.24-26.63L106.59-26.63 106.59-33.55 134.22-33.55 134.22-26.63 122.64-26.63 124.44-28.43 124.44 0 116.44 0 116.44-28.43 118.24-26.63ZM152.49 0.8L152.49 0.8Q147.72 0.8 144.15-1.21 140.59-3.23 138.62-7.16 136.64-11.1 136.64-16.88L136.64-16.88Q136.64-22.8 138.62-26.66 140.59-30.53 144.15-32.41 147.72-34.3 152.49-34.3L152.49-34.3Q157.31-34.3 160.9-32.33 164.49-30.35 166.47-26.48 168.44-22.6 168.44-16.88L168.44-16.88Q168.44-11 166.47-7.06 164.49-3.13 160.9-1.16 157.31 0.8 152.49 0.8ZM152.49-6.38L152.49-6.38Q155.99-6.38 158.09-9.14 160.19-11.9 160.19-16.93L160.19-16.93Q160.19-21.65 158.09-24.39 155.99-27.13 152.49-27.13L152.49-27.13Q149.09-27.13 146.99-24.39 144.89-21.65 144.89-16.88L144.89-16.88Q144.89-11.9 146.99-9.14 149.09-6.38 152.49-6.38ZM182.51-26.63L170.86-26.63 170.86-33.55 198.49-33.55 198.49-26.63 186.91-26.63 188.71-28.43 188.71 0 180.71 0 180.71-28.43 182.51-26.63ZM199.63-4.65L199.63-4.65Q199.63-6.88 201.12-8.35 202.61-9.83 204.98-9.83L204.98-9.83Q207.36-9.83 208.91-8.35 210.46-6.88 210.46-4.65L210.46-4.65Q210.46-2.43 208.91-0.99 207.36 0.45 204.98 0.45L204.98 0.45Q202.61 0.45 201.12-1 199.63-2.45 199.63-4.65ZM228.41 0.8L228.41 0.8Q224.01 0.8 220.67-1.18 217.33-3.15 215.46-7.05 213.58-10.95 213.58-16.73L213.58-16.73Q213.58-22.53 215.44-26.43 217.31-30.33 220.66-32.31 224.01-34.3 228.41-34.3L228.41-34.3Q234.76-34.3 238.08-31.3 241.41-28.3 242.03-23.53L242.03-23.53 233.53-22.05Q232.96-24.2 231.72-25.61 230.48-27.03 228.41-27.03L228.41-27.03Q226.56-27.03 225.15-25.91 223.73-24.8 222.96-22.53 222.18-20.25 222.18-16.73L222.18-16.73Q222.18-13.28 222.98-11.01 223.78-8.75 225.19-7.65 226.61-6.55 228.41-6.55L228.41-6.55Q230.98-6.55 232.26-7.91 233.53-9.28 233.53-11.23L233.53-11.23 241.98-11.23Q241.98-7.35 240.42-4.66 238.86-1.98 235.83-0.59 232.81 0.8 228.41 0.8ZM262.18 0.8L262.18 0.8Q257.41 0.8 253.84-1.21 250.28-3.23 248.31-7.16 246.33-11.1 246.33-16.88L246.33-16.88Q246.33-22.8 248.31-26.66 250.28-30.53 253.84-32.41 257.41-34.3 262.18-34.3L262.18-34.3Q267-34.3 270.59-32.33 274.18-30.35 276.16-26.48 278.13-22.6 278.13-16.88L278.13-16.88Q278.13-11 276.16-7.06 274.18-3.13 270.59-1.16 267 0.8 262.18 0.8ZM262.18-6.38L262.18-6.38Q265.68-6.38 267.78-9.14 269.88-11.9 269.88-16.93L269.88-16.93Q269.88-21.65 267.78-24.39 265.68-27.13 262.18-27.13L262.18-27.13Q258.78-27.13 256.68-24.39 254.58-21.65 254.58-16.88L254.58-16.88Q254.58-11.9 256.68-9.14 258.78-6.38 262.18-6.38ZM284.48 0L284.48-33.55 295.93-33.55 303.35-15.65 302.73-15.65 310.15-33.55 321.15-33.55 321.15 0 313.1 0 313.1-23.88 314.2-23.88 305.58-3.13 300.4-3.13 291.83-23.83 292.48-23.83 292.48 0 284.48 0Z" opacity="1" transform="matrix(1,0,0,1,0,0)" fill="#000000" class="undefined-text-0" data-fill-palette-color="primary" id="text-0"></path></svg></g></svg></g><g transform="matrix(1,0,0,1,0,43.292681327409646)"><svg viewBox="0 0 316.416 26.892297730072137" height="26.892297730072137" width="316.416"><g transform="matrix(1,0,0,1,0,0)"><svg width="316.416" viewBox="3.1 -37.15 568.23 48.3" height="26.892297730072137" data-palette-color="#1ebbd7"><path d="M3.1 0L3.1-33.85 24.65-33.85 24.65-27.85 11.35-27.85 11.35-20.1 22.5-20.1 21.5-14.15 11.35-14.15 11.35 0 3.1 0ZM45.9-24L45.9-12.05Q45.9-9.05 46.3-7.05 46.7-5.05 47.25-3.85L47.25-3.85Q47.85-2.4 48.65-1.6L48.65-1.6 42.3 0.4Q41.75-0.1 41.3-0.85L41.3-0.85Q40.9-1.5 40.52-2.43 40.15-3.35 39.9-4.6L39.9-4.6Q39.05-2.25 37.4-0.98 35.75 0.3 33.05 0.3L33.05 0.3Q30.6 0.3 28.77-0.6 26.95-1.5 25.75-3.13 24.55-4.75 23.97-7.05 23.4-9.35 23.4-12.15L23.4-12.15Q23.4-15 24.32-17.45 25.25-19.9 26.9-21.68 28.55-23.45 30.85-24.45 33.15-25.45 35.95-25.45L35.95-25.45Q37.5-25.45 39.25-25.23 41-25 42.45-24.73 43.9-24.45 44.87-24.23 45.85-24 45.9-24L45.9-24ZM34.35-5.5Q35.1-5.5 35.77-6.15 36.45-6.8 36.95-7.9 37.45-9 37.72-10.43 38-11.85 38-13.45L38-13.45 38-19.25Q37.65-19.4 37.02-19.53 36.4-19.65 35.95-19.65L35.95-19.65Q34.75-19.65 33.95-19.13 33.15-18.6 32.67-17.68 32.2-16.75 32-15.45 31.8-14.15 31.8-12.65L31.8-12.65Q31.8-11.25 31.85-9.98 31.9-8.7 32.17-7.7 32.45-6.7 32.95-6.1 33.45-5.5 34.35-5.5L34.35-5.5ZM59.85-25.55L59.85-25.55Q61.75-25.55 63.37-25.23 65-24.9 66.25-24.5L66.25-24.5Q67.7-24 68.9-23.45L68.9-23.45 66.4-17.85Q66-18.05 65.37-18.35 64.75-18.65 64.02-18.95 63.3-19.25 62.5-19.45 61.7-19.65 60.95-19.65L60.95-19.65Q60.15-19.65 59.6-19.3 59.05-18.95 59.05-18.2L59.05-18.2Q59.05-17.4 60.07-16.63 61.1-15.85 62.8-15.15L62.8-15.15Q65.8-13.9 67.42-12.18 69.05-10.45 69.05-7.55L69.05-7.55Q69.05-5.95 68.47-4.48 67.9-3 66.77-1.9 65.65-0.8 63.95-0.15 62.25 0.5 60.05 0.5L60.05 0.5Q58.3 0.5 56.77 0.25 55.25 0 53.97-0.38 52.7-0.75 51.7-1.13 50.7-1.5 50.1-1.8L50.1-1.8 52.7-7.55Q52.95-7.45 53.57-7.1 54.2-6.75 55.02-6.4 55.85-6.05 56.77-5.78 57.7-5.5 58.55-5.5L58.55-5.5Q59.6-5.5 60.27-5.9 60.95-6.3 60.95-7.1L60.95-7.1Q60.95-8.05 60.12-8.8 59.3-9.55 58-10.05L58-10.05Q54.25-11.55 52.62-13.43 51-15.3 51-18.1L51-18.1Q51-19.7 51.6-21.05 52.2-22.4 53.35-23.4 54.5-24.4 56.12-24.98 57.75-25.55 59.85-25.55ZM70.89-19.1L70.89-24.9 74.99-24.9 75.84-30.05 82.69-31.55 82.69-24.9 88.59-24.9 87.64-19.1 82.69-19.1 82.69-7.95Q82.69-5.75 84.99-5.75L84.99-5.75Q86.24-5.75 87.39-6L87.39-6Q87.99-6.15 88.59-6.3L88.59-6.3 89.94-1Q88.94-0.65 87.17-0.23 85.39 0.2 82.84 0.2L82.84 0.2Q79.09 0.2 76.97-1.35 74.84-2.9 74.84-6.6L74.84-6.6 74.84-19.1 70.89-19.1ZM93.64-5.85Q93.69-5.9 93.97-6.08 94.24-6.25 94.77-6.48 95.29-6.7 96.14-6.88 96.99-7.05 98.14-7.05L98.14-7.05Q100.44-7.05 101.37-5.7 102.29-4.35 102.29-2.5L102.29-2.5Q102.29 0.7 100.44 3.68 98.59 6.65 94.49 8.75L94.49 8.75 91.59 4.8Q93.39 3.5 94.02 2.02 94.64 0.55 94.64-0.85L94.64-0.85Q94.64-2.4 94.19-3.7 93.74-5 93.64-5.85L93.64-5.85ZM128.29-25.55L128.29-25.55Q130.19-25.55 131.81-25.23 133.44-24.9 134.69-24.5L134.69-24.5Q136.14-24 137.34-23.45L137.34-23.45 134.84-17.85Q134.44-18.05 133.81-18.35 133.19-18.65 132.46-18.95 131.74-19.25 130.94-19.45 130.14-19.65 129.39-19.65L129.39-19.65Q128.59-19.65 128.04-19.3 127.49-18.95 127.49-18.2L127.49-18.2Q127.49-17.4 128.51-16.63 129.54-15.85 131.24-15.15L131.24-15.15Q134.24-13.9 135.86-12.18 137.49-10.45 137.49-7.55L137.49-7.55Q137.49-5.95 136.91-4.48 136.34-3 135.21-1.9 134.09-0.8 132.39-0.15 130.69 0.5 128.49 0.5L128.49 0.5Q126.74 0.5 125.21 0.25 123.69 0 122.41-0.38 121.14-0.75 120.14-1.13 119.14-1.5 118.54-1.8L118.54-1.8 121.14-7.55Q121.39-7.45 122.01-7.1 122.64-6.75 123.46-6.4 124.29-6.05 125.21-5.78 126.14-5.5 126.99-5.5L126.99-5.5Q128.04-5.5 128.71-5.9 129.39-6.3 129.39-7.1L129.39-7.1Q129.39-8.05 128.56-8.8 127.74-9.55 126.44-10.05L126.44-10.05Q122.69-11.55 121.06-13.43 119.44-15.3 119.44-18.1L119.44-18.1Q119.44-19.7 120.04-21.05 120.64-22.4 121.79-23.4 122.94-24.4 124.56-24.98 126.19-25.55 128.29-25.55ZM162.68-24L162.68-12.05Q162.68-9.05 163.08-7.05 163.48-5.05 164.03-3.85L164.03-3.85Q164.63-2.4 165.43-1.6L165.43-1.6 159.08 0.4Q158.53-0.1 158.08-0.85L158.08-0.85Q157.68-1.5 157.31-2.43 156.93-3.35 156.68-4.6L156.68-4.6Q155.83-2.25 154.18-0.98 152.53 0.3 149.83 0.3L149.83 0.3Q147.38 0.3 145.56-0.6 143.73-1.5 142.53-3.13 141.33-4.75 140.76-7.05 140.18-9.35 140.18-12.15L140.18-12.15Q140.18-15 141.11-17.45 142.03-19.9 143.68-21.68 145.33-23.45 147.63-24.45 149.93-25.45 152.73-25.45L152.73-25.45Q154.28-25.45 156.03-25.23 157.78-25 159.23-24.73 160.68-24.45 161.66-24.23 162.63-24 162.68-24L162.68-24ZM151.13-5.5Q151.88-5.5 152.56-6.15 153.23-6.8 153.73-7.9 154.23-9 154.51-10.43 154.78-11.85 154.78-13.45L154.78-13.45 154.78-19.25Q154.43-19.4 153.81-19.53 153.18-19.65 152.73-19.65L152.73-19.65Q151.53-19.65 150.73-19.13 149.93-18.6 149.46-17.68 148.98-16.75 148.78-15.45 148.58-14.15 148.58-12.65L148.58-12.65Q148.58-11.25 148.63-9.98 148.68-8.7 148.96-7.7 149.23-6.7 149.73-6.1 150.23-5.5 151.13-5.5L151.13-5.5ZM186.13-32.95L182.33-28.95Q182.08-29.35 181.51-29.78 180.93-30.2 180.18-30.2L180.18-30.2Q179.03-30.2 178.23-29.43 177.43-28.65 177.43-27.2L177.43-27.2Q177.43-26.05 177.63-25.1L177.63-25.1 184.03-25.1 183.03-19.1 178.58-19.1 178.58-0.85Q178.58 2 177.71 3.95 176.83 5.9 175.48 7.25 174.13 8.6 172.46 9.5 170.78 10.4 169.23 11.15L169.23 11.15 165.63 5.3Q168.03 4.05 169.36 2.63 170.68 1.2 170.68-0.7L170.68-0.7 170.68-19.1 166.83-19.1 166.83-25.1 170.68-25.1Q170.38-25.85 170.21-26.65 170.03-27.45 170.03-28.35L170.03-28.35Q170.03-30.2 170.68-31.63 171.33-33.05 172.53-34.05 173.73-35.05 175.36-35.58 176.98-36.1 178.93-36.1L178.93-36.1Q181.68-36.1 183.31-35.2 184.93-34.3 186.13-32.95L186.13-32.95ZM184.33-11.85Q184.33-15.2 185.3-17.78 186.28-20.35 188-22.08 189.73-23.8 192.03-24.7 194.33-25.6 197.03-25.6L197.03-25.6Q199.38-25.6 201.03-25.03 202.68-24.45 203.73-23.43 204.78-22.4 205.28-21.03 205.78-19.65 205.78-18.05L205.78-18.05Q205.78-16.25 204.88-14.65 203.98-13.05 202.3-11.83 200.63-10.6 198.25-9.8 195.88-9 192.88-8.75L192.88-8.75Q193.23-7.25 194.15-6.33 195.08-5.4 196.98-5.4L196.98-5.4Q198.08-5.4 199.33-5.65 200.58-5.9 201.63-6.2L201.63-6.2Q202.88-6.55 204.08-7L204.08-7 205.58-1.8Q204.23-1.15 202.63-0.65L202.63-0.65Q201.28-0.25 199.5 0.1 197.73 0.45 195.73 0.45L195.73 0.45Q192.68 0.45 190.5-0.45 188.33-1.35 186.95-2.95 185.58-4.55 184.95-6.83 184.33-9.1 184.33-11.85L184.33-11.85ZM196.03-19.95Q195.08-19.95 194.4-19.4 193.73-18.85 193.33-17.95 192.93-17.05 192.73-15.95 192.53-14.85 192.48-13.8L192.48-13.8Q193.98-13.85 195-14.25 196.03-14.65 196.68-15.25 197.33-15.85 197.63-16.55 197.93-17.25 197.93-17.85L197.93-17.85Q197.93-18.8 197.4-19.38 196.88-19.95 196.03-19.95L196.03-19.95ZM243.52-24L243.52-12.05Q243.52-9.05 243.92-7.05 244.32-5.05 244.87-3.85L244.87-3.85Q245.47-2.4 246.27-1.6L246.27-1.6 239.92 0.4Q239.37-0.1 238.92-0.85L238.92-0.85Q238.52-1.5 238.15-2.43 237.77-3.35 237.52-4.6L237.52-4.6Q236.67-2.25 235.02-0.98 233.37 0.3 230.67 0.3L230.67 0.3Q228.22 0.3 226.4-0.6 224.57-1.5 223.37-3.13 222.17-4.75 221.6-7.05 221.02-9.35 221.02-12.15L221.02-12.15Q221.02-15 221.95-17.45 222.87-19.9 224.52-21.68 226.17-23.45 228.47-24.45 230.77-25.45 233.57-25.45L233.57-25.45Q235.12-25.45 236.87-25.23 238.62-25 240.07-24.73 241.52-24.45 242.5-24.23 243.47-24 243.52-24L243.52-24ZM231.97-5.5Q232.72-5.5 233.4-6.15 234.07-6.8 234.57-7.9 235.07-9 235.35-10.43 235.62-11.85 235.62-13.45L235.62-13.45 235.62-19.25Q235.27-19.4 234.65-19.53 234.02-19.65 233.57-19.65L233.57-19.65Q232.37-19.65 231.57-19.13 230.77-18.6 230.3-17.68 229.82-16.75 229.62-15.45 229.42-14.15 229.42-12.65L229.42-12.65Q229.42-11.25 229.47-9.98 229.52-8.7 229.8-7.7 230.07-6.7 230.57-6.1 231.07-5.5 231.97-5.5L231.97-5.5ZM271.12 0L263.17 0 263.17-15.6Q263.17-17.35 262.75-18.43 262.32-19.5 261.17-19.5L261.17-19.5Q259.77-19.5 258.57-17.68 257.37-15.85 257.37-12.55L257.37-12.55 257.37 0 249.47 0 249.47-13Q249.47-16 249.05-17.98 248.62-19.95 248.07-21.2L248.07-21.2Q247.47-22.6 246.72-23.45L246.72-23.45 253.07-25.45Q253.52-24.95 253.97-24.3L253.97-24.3Q254.37-23.75 254.75-22.88 255.12-22 255.37-20.9L255.37-20.9Q256.67-23.25 258.94-24.35 261.22-25.45 263.92-25.45L263.92-25.45Q267.82-25.45 269.47-23.08 271.12-20.7 271.12-16.75L271.12-16.75 271.12 0ZM300.32-1.6L293.97 0.4 293.67 0.05Q293.37-0.25 292.97-0.9 292.57-1.55 292.17-2.48 291.77-3.4 291.57-4.6L291.57-4.6Q290.72-2.25 289.07-0.98 287.42 0.3 284.72 0.3L284.72 0.3Q282.27 0.3 280.44-0.6 278.62-1.5 277.42-3.13 276.22-4.75 275.64-7.05 275.07-9.35 275.07-12.15L275.07-12.15Q275.07-15 275.99-17.45 276.92-19.9 278.57-21.68 280.22-23.45 282.52-24.45 284.82-25.45 287.62-25.45L287.62-25.45Q288.07-25.45 288.59-25.4 289.12-25.35 289.67-25.3L289.67-25.3 289.67-36.2 297.57-34.9 297.57-12.05Q297.57-9.1 297.99-7.1 298.42-5.1 298.92-3.88 299.42-2.65 299.87-2.15L299.87-2.15 300.32-1.6ZM286.02-5.5Q286.77-5.5 287.44-6.15 288.12-6.8 288.62-7.9 289.12-9 289.39-10.43 289.67-11.85 289.67-13.45L289.67-13.45 289.67-19.25Q289.32-19.4 288.69-19.53 288.07-19.65 287.62-19.65L287.62-19.65Q286.42-19.65 285.62-19.13 284.82-18.6 284.34-17.68 283.87-16.75 283.67-15.45 283.47-14.15 283.47-12.65L283.47-12.65Q283.47-11.25 283.52-9.98 283.57-8.7 283.84-7.7 284.12-6.7 284.62-6.1 285.12-5.5 286.02-5.5L286.02-5.5ZM329.01-17.9Q328.46-17.9 327.81-17.6 327.16-17.3 326.56-16.68 325.96-16.05 325.56-15.08 325.16-14.1 325.16-12.75L325.16-12.75 325.16 0 317.26 0 317.26-13Q317.26-16 316.84-17.98 316.41-19.95 315.86-21.2L315.86-21.2Q315.26-22.6 314.51-23.45L314.51-23.45 320.86-25.45Q321.26-24.95 321.71-24.3L321.71-24.3Q322.06-23.75 322.46-22.9 322.86-22.05 323.11-20.95L323.11-20.95Q324.36-23.35 326.09-24.4 327.81-25.45 330.16-25.45L330.16-25.45Q331.21-25.45 332.04-25.28 332.86-25.1 333.41-24.9L333.41-24.9 331.36-17.35Q331.01-17.55 330.44-17.73 329.86-17.9 329.01-17.9L329.01-17.9ZM333.41-11.85Q333.41-15.2 334.38-17.78 335.36-20.35 337.08-22.08 338.81-23.8 341.11-24.7 343.41-25.6 346.11-25.6L346.11-25.6Q348.46-25.6 350.11-25.03 351.76-24.45 352.81-23.43 353.86-22.4 354.36-21.03 354.86-19.65 354.86-18.05L354.86-18.05Q354.86-16.25 353.96-14.65 353.06-13.05 351.38-11.83 349.71-10.6 347.33-9.8 344.96-9 341.96-8.75L341.96-8.75Q342.31-7.25 343.24-6.33 344.16-5.4 346.06-5.4L346.06-5.4Q347.16-5.4 348.41-5.65 349.66-5.9 350.71-6.2L350.71-6.2Q351.96-6.55 353.16-7L353.16-7 354.66-1.8Q353.31-1.15 351.71-0.65L351.71-0.65Q350.36-0.25 348.58 0.1 346.81 0.45 344.81 0.45L344.81 0.45Q341.76 0.45 339.58-0.45 337.41-1.35 336.04-2.95 334.66-4.55 334.04-6.83 333.41-9.1 333.41-11.85L333.41-11.85ZM345.11-19.95Q344.16-19.95 343.49-19.4 342.81-18.85 342.41-17.95 342.01-17.05 341.81-15.95 341.61-14.85 341.56-13.8L341.56-13.8Q343.06-13.85 344.08-14.25 345.11-14.65 345.76-15.25 346.41-15.85 346.71-16.55 347.01-17.25 347.01-17.85L347.01-17.85Q347.01-18.8 346.49-19.38 345.96-19.95 345.11-19.95L345.11-19.95ZM367.51 9.7L359.61 11.05 359.61-13Q359.61-16 359.18-17.98 358.76-19.95 358.21-21.2L358.21-21.2Q357.61-22.6 356.86-23.45L356.86-23.45 363.21-25.45Q363.81-24.85 364.31-24L364.31-24Q364.71-23.3 365.11-22.23 365.51-21.15 365.71-19.75L365.71-19.75Q366.66-22.6 368.33-24.03 370.01-25.45 372.71-25.45L372.71-25.45Q375.06-25.45 376.83-24.55 378.61-23.65 379.78-22.03 380.96-20.4 381.53-18.1 382.11-15.8 382.11-12.95L382.11-12.95Q382.11-10.15 381.21-7.73 380.31-5.3 378.68-3.53 377.06-1.75 374.86-0.73 372.66 0.3 370.11 0.3L370.11 0.3Q368.71 0.3 367.51 0L367.51 0 367.51 9.7ZM371.16-19.65Q370.41-19.65 369.73-19.03 369.06-18.4 368.56-17.38 368.06-16.35 367.78-14.98 367.51-13.6 367.51-12.1L367.51-12.1 367.51-5.85Q367.86-5.75 368.46-5.63 369.06-5.5 369.56-5.5L369.56-5.5Q370.76-5.5 371.56-6.03 372.36-6.55 372.83-7.48 373.31-8.4 373.51-9.68 373.71-10.95 373.71-12.45L373.71-12.45Q373.71-13.85 373.66-15.15 373.61-16.45 373.33-17.45 373.06-18.45 372.56-19.05 372.06-19.65 371.16-19.65L371.16-19.65ZM399.81-12.6L399.81-25.1 407.7-25.1 407.7-12.05Q407.7-9.05 408.1-7.05 408.5-5.05 409.06-3.85L409.06-3.85Q409.65-2.4 410.45-1.6L410.45-1.6 404.1 0.4Q403.65-0.05 403.2-0.75L403.2-0.75Q402.81-1.3 402.4-2.18 402-3.05 401.75-4.2L401.75-4.2Q400.45-1.85 398.18-0.78 395.9 0.3 393.25 0.3L393.25 0.3Q391.31 0.3 389.93-0.33 388.56-0.95 387.68-2.08 386.81-3.2 386.43-4.8 386.06-6.4 386.06-8.4L386.06-8.4 386.06-25.1 394-25.1 394-9.45Q394-7.7 394.43-6.63 394.85-5.55 396-5.55L396-5.55Q397.4-5.55 398.6-7.43 399.81-9.3 399.81-12.6L399.81-12.6ZM411.8-19.1L411.8-24.9 415.9-24.9 416.75-30.05 423.6-31.55 423.6-24.9 429.5-24.9 428.55-19.1 423.6-19.1 423.6-7.95Q423.6-5.75 425.9-5.75L425.9-5.75Q427.15-5.75 428.3-6L428.3-6Q428.9-6.15 429.5-6.3L429.5-6.3 430.85-1Q429.85-0.65 428.08-0.23 426.3 0.2 423.75 0.2L423.75 0.2Q420 0.2 417.88-1.35 415.75-2.9 415.75-6.6L415.75-6.6 415.75-19.1 411.8-19.1ZM454-24L454-12.05Q454-9.05 454.4-7.05 454.8-5.05 455.35-3.85L455.35-3.85Q455.95-2.4 456.75-1.6L456.75-1.6 450.4 0.4Q449.85-0.1 449.4-0.85L449.4-0.85Q449-1.5 448.63-2.43 448.25-3.35 448-4.6L448-4.6Q447.15-2.25 445.5-0.98 443.85 0.3 441.15 0.3L441.15 0.3Q438.7 0.3 436.88-0.6 435.05-1.5 433.85-3.13 432.65-4.75 432.08-7.05 431.5-9.35 431.5-12.15L431.5-12.15Q431.5-15 432.43-17.45 433.35-19.9 435-21.68 436.65-23.45 438.95-24.45 441.25-25.45 444.05-25.45L444.05-25.45Q445.6-25.45 447.35-25.23 449.1-25 450.55-24.73 452-24.45 452.98-24.23 453.95-24 454-24L454-24ZM442.45-5.5Q443.2-5.5 443.88-6.15 444.55-6.8 445.05-7.9 445.55-9 445.83-10.43 446.1-11.85 446.1-13.45L446.1-13.45 446.1-19.25Q445.75-19.4 445.13-19.53 444.5-19.65 444.05-19.65L444.05-19.65Q442.85-19.65 442.05-19.13 441.25-18.6 440.78-17.68 440.3-16.75 440.1-15.45 439.9-14.15 439.9-12.65L439.9-12.65Q439.9-11.25 439.95-9.98 440-8.7 440.28-7.7 440.55-6.7 441.05-6.1 441.55-5.5 442.45-5.5L442.45-5.5ZM457.85-19.1L457.85-24.9 461.95-24.9 462.8-30.05 469.65-31.55 469.65-24.9 475.55-24.9 474.6-19.1 469.65-19.1 469.65-7.95Q469.65-5.75 471.95-5.75L471.95-5.75Q473.2-5.75 474.35-6L474.35-6Q474.95-6.15 475.55-6.3L475.55-6.3 476.9-1Q475.9-0.65 474.12-0.23 472.35 0.2 469.8 0.2L469.8 0.2Q466.05 0.2 463.92-1.35 461.8-2.9 461.8-6.6L461.8-6.6 461.8-19.1 457.85-19.1ZM485.9 0.2Q483.05 0.2 481.3-1.28 479.55-2.75 479.55-5.45L479.55-5.45 479.55-25.1 487.45-25.1 487.45-7.7Q487.45-6.55 487.8-6.15 488.15-5.75 488.85-5.75L488.85-5.75Q489.25-5.75 489.65-5.83 490.05-5.9 490.15-5.95L490.15-5.95 490.85-1Q490.8-0.95 490.4-0.78 490-0.6 489.35-0.38 488.7-0.15 487.8 0.03 486.9 0.2 485.9 0.2L485.9 0.2ZM483.6-37.15Q485.7-37.15 486.8-35.9 487.9-34.65 487.9-32.75L487.9-32.75Q487.9-30.8 486.77-29.5 485.65-28.2 483.4-28.2L483.4-28.2Q481.3-28.2 480.17-29.48 479.05-30.75 479.05-32.5L479.05-32.5Q479.05-34.5 480.2-35.83 481.35-37.15 483.6-37.15L483.6-37.15ZM504.39-25.6Q510.34-25.6 513.07-22.2 515.79-18.8 515.79-12.8L515.79-12.8Q515.79-9.95 515.07-7.53 514.34-5.1 512.87-3.33 511.39-1.55 509.17-0.53 506.94 0.5 503.99 0.5L503.99 0.5Q500.99 0.5 498.82-0.38 496.64-1.25 495.27-2.9 493.89-4.55 493.22-6.93 492.54-9.3 492.54-12.25L492.54-12.25Q492.54-15.1 493.27-17.55 493.99-20 495.47-21.78 496.94-23.55 499.17-24.58 501.39-25.6 504.39-25.6L504.39-25.6ZM503.94-19.65Q503.04-19.65 502.44-19.13 501.84-18.6 501.52-17.68 501.19-16.75 501.07-15.5 500.94-14.25 500.94-12.8L500.94-12.8Q500.94-11.3 501.09-9.95 501.24-8.6 501.62-7.6 501.99-6.6 502.69-6.03 503.39-5.45 504.44-5.45L504.44-5.45Q505.34-5.45 505.94-6 506.54-6.55 506.87-7.48 507.19-8.4 507.32-9.65 507.44-10.9 507.44-12.3L507.44-12.3Q507.44-13.85 507.29-15.18 507.14-16.5 506.77-17.5 506.39-18.5 505.69-19.07 504.99-19.65 503.94-19.65L503.94-19.65ZM542.44 0L534.49 0 534.49-15.6Q534.49-17.35 534.07-18.43 533.64-19.5 532.49-19.5L532.49-19.5Q531.09-19.5 529.89-17.68 528.69-15.85 528.69-12.55L528.69-12.55 528.69 0 520.79 0 520.79-13Q520.79-16 520.37-17.98 519.94-19.95 519.39-21.2L519.39-21.2Q518.79-22.6 518.04-23.45L518.04-23.45 524.39-25.45Q524.84-24.95 525.29-24.3L525.29-24.3Q525.69-23.75 526.07-22.88 526.44-22 526.69-20.9L526.69-20.9Q527.99-23.25 530.27-24.35 532.54-25.45 535.24-25.45L535.24-25.45Q539.14-25.45 540.79-23.08 542.44-20.7 542.44-16.75L542.44-16.75 542.44 0ZM566.13-8.45Q568.24-8.45 569.36-7.2 570.49-5.95 570.49-4.05L570.49-4.05Q570.49-2.15 569.36-0.83 568.24 0.5 566.03 0.5L566.03 0.5Q563.93 0.5 562.78-0.8 561.63-2.1 561.63-3.85L561.63-3.85Q561.63-5.8 562.78-7.13 563.93-8.45 566.13-8.45L566.13-8.45ZM562.63-11L562.63-33.85 571.33-33.85 569.88-11 562.63-11Z" opacity="1" transform="matrix(1,0,0,1,0,0)" fill="#000000" class="undefined-text-1" data-fill-palette-color="secondary" id="text-1"></path></svg></g></svg></g></svg></g></svg></g></svg></g></svg></g><g mask="url(#d0b4700a-fae5-450a-9163-667e13c2fbc1)"><g transform="matrix(0.6106018611901756, 0, 0, 0.6106018611901756, 65.32381461808745, 0.9999999999999858)"><svg xmlns="http://www.w3.org/2000/svg" xmlns:xlink="http://www.w3.org/1999/xlink" version="1.1" x="0" y="0" viewBox="15.334 23.985999999999997 433.789 401.571" enable-background="new 0 0 463.893 438.877" xml:space="preserve" height="401.571" width="433.789" class="icon-none" data-fill-palette-color="accent" id="none"><path d="M232.272 88.949L79.937 223.837v192.749c0 4.979 4.023 8.971 9.001 8.971h95.205v-84.51c0-4.979 3.994-9 8.971-9h78.229c4.978 0 8.97 4.021 8.97 9v84.51h95.235c4.979 0 8.972-3.992 8.972-8.971V223.779L232.272 88.949zM276.328 277.105h-85.096V224.74h85.096V277.105z" fill="#000000" data-fill-palette-color="accent"></path><path d="M79.937 42.699h54.771l-0.479 32.438-54.293 49.048V42.699z" fill="#000000" data-fill-palette-color="accent"></path><path d="M231.388 24.746L15.334 216.053l22.758 25.676 194.18-171.952 194.136 171.952 22.715-25.676L233.113 24.746l-0.884-0.76L231.388 24.746z" fill="#000000" data-fill-palette-color="accent"></path></svg></g></g></svg></g><defs><mask id="d0b4700a-fae5-450a-9163-667e13c2fbc1"><rect width="640" height="400" fill="white"></rect><rect width="348.05760000000004" height="86.72176649943448" fill="black" x="145.97119999999998" y="156.63911675028277" id="transform-me" transform="matrix(1,0,0,1,-122.24000000000001,-76.4)"></rect></mask></defs></svg><rect width="395.52" height="247.2" fill="none" stroke="none" visibility="hidden"></rect></g></svg></g></svg>